<svg xmlns="http://www.w3.org/2000/svg" viewBox="0 0 1200 675" width="1200" height="675">
  <defs>
    <linearGradient id="bgGrad" x1="0%" y1="0%" x2="100%" y2="100%">
      <stop offset="0%" stop-color="#0b1120"/>
      <stop offset="50%" stop-color="#1e1b4b"/>
      <stop offset="100%" stop-color="#0f172a"/>
    </linearGradient>
    <linearGradient id="accentGrad" x1="0%" y1="0%" x2="100%" y2="0%">
      <stop offset="0%" stop-color="#06b6d4"/>
      <stop offset="100%" stop-color="#8b5cf6"/>
    </linearGradient>
    <radialGradient id="glow" cx="50%" cy="50%" r="50%">
      <stop offset="0%" stop-color="#38bdf8" stop-opacity="0.35"/>
      <stop offset="100%" stop-color="#38bdf8" stop-opacity="0"/>
    </radialGradient>
    <pattern id="grid" width="40" height="40" patternUnits="userSpaceOnUse">
      <path d="M 40 0 L 0 0 0 40" fill="none" stroke="rgba(255,255,255,0.05)" stroke-width="1"/>
    </pattern>
  </defs>

  <!-- Background -->
  <rect width="100%" height="100%" fill="url(#bgGrad)"/>
  <rect width="100%" height="100%" fill="url(#grid)"/>

  <!-- Glow Effect -->
  <circle cx="600" cy="300" r="380" fill="url(#glow)"/>

  <!-- Decorative Circuit Nodes -->
  <g stroke="url(#accentGrad)" stroke-width="2" fill="none" opacity="0.4">
    <circle cx="200" cy="180" r="8"/>
    <circle cx="1000" cy="200" r="10"/>
    <circle cx="350" cy="480" r="6"/>
    <circle cx="850" cy="500" r="8"/>
    <path d="M 208 180 L 350 250 L 500 250"/>
    <path d="M 1000 210 L 850 350 L 700 350"/>
  </g>

  <!-- Central Icon Badge -->
  <rect x="520" y="170" width="160" height="160" rx="32" fill="#1e293b" stroke="url(#accentGrad)" stroke-width="3"/>
  <text x="600" y="275" font-family="'Segoe UI', Roboto, sans-serif" font-size="64" font-weight="900" fill="#38bdf8" text-anchor="middle">AI</text>

  <!-- Slide Number & Title -->
  <text x="600" y="380" font-family="'Segoe UI', Roboto, sans-serif" font-size="22" font-weight="700" fill="#06b6d4" letter-spacing="4" text-anchor="middle">SLIDE 06 • ARTIFICIAL INTELLIGENCE</text>
  <text x="600" y="430" font-family="'Segoe UI', Roboto, sans-serif" font-size="34" font-weight="800" fill="#ffffff" text-anchor="middle">Mô hình mạng nơ-ron và trí tuệ nhân tạo</text>
  <text x="600" y="475" font-family="'Segoe UI', Roboto, sans-serif" font-size="18" fill="#94a3b8" text-anchor="middle">Ứng dụng AI trong Học tập &amp; Nghiên cứu khoa học</text>

  <!-- Corner Tag -->
  <rect x="50" y="600" width="220" height="34" rx="17" fill="rgba(255,255,255,0.06)" stroke="rgba(255,255,255,0.1)"/>
  <text x="160" y="622" font-family="'Segoe UI', Roboto, sans-serif" font-size="13" font-weight="600" fill="#cbd5e1" text-anchor="middle">ĐẠI HỌC • TÂN SINH VIÊN</text>
</svg>